#!OML:ASF X:\für Bonn\!DataBase\2005_08_12_Daniel\c3d\Daniel.ASF
:FULLY-SPECIFIED
:DEGREES
138
root -0.490859 15.2626 0.371138 -15.6727 -77.1988 -2.09424
lowerback 15.4075 0.102454 3.95105
upperback -2.86297 0.623261 -2.49907
thorax -11.7935 -0.0961075 -5.16713
lowerneck 3.70443 -5.25004 -4.44239
upperneck 6.27003 -7.10493 -3.06335
head 1.36618 -3.73281 -0.230489
rclavicle -6.75868e-015 4.77083e-015
rhumerus -120.772 -176.368 114.665
rradius 94.0564
rwrist 33.0054
rhand -64.5335 63.0419
rfingers 7.12502
rthumb -36.4562 36.8388
lclavicle -6.75868e-015 4.77083e-015
lhumerus -113.824 209.77 -115.692
lradius 85.1962
lwrist 11.505
lhand -34.7666 341.556
lfingers 7.12502
lthumb -7.91948 11.3875
rfemur 3.53281 -19.0139 -0.135448
rtibia 61.1738
rfoot -29.4893 6.25147
rtoes -12.4452
lfemur -11.0696 -9.14271 -16.6063
ltibia 65.9256
lfoot -34.3321 -16.0173
ltoes 3.74624
139
root -0.527189 15.3145 0.36193 -15.1982 -76.983 -2.24196
lowerback 15.0401 0.156259 3.8281
upperback -3.17167 0.655857 -2.53623
thorax -11.9239 -0.0842849 -5.14397
lowerneck 3.49617 -5.33515 -4.55135
upperneck 6.52752 -7.20613 -2.96606
head 1.49242 -3.79336 -0.196188
rclavicle -1.63003e-014 -3.97569e-014
rhumerus -120.398 -175.876 114.831
rradius 93.9615
rwrist 33.0036
rhand -64.8207 67.1311
rfingers 7.12502
rthumb -36.728 40.9968
lclavicle -1.63003e-014 -3.97569e-014
lhumerus -113.288 209.75 -115.919
lradius 85.0262
lwrist 11.2787
lhand -34.9891 341.961
lfingers 7.12502
lthumb -8.13425 11.7846
rfemur 3.89315 -19.2126 0.0643594
rtibia 60.2537
rfoot -29.4782 6.09113
rtoes -12.3088
lfemur -11.0188 -9.21056 -16.4597
ltibia 65.2678
lfoot -33.9004 -16.2645
ltoes 4.02665
140
root -0.563421 15.3768 0.352331 -14.7452 -76.7966 -2.27275
lowerback 14.5676 0.221538 3.66249
upperback -3.48192 0.693688 -2.56121
thorax -11.9925 -0.0642011 -5.08052
lowerneck 3.31519 -5.40223 -4.66764
upperneck 6.73249 -7.28557 -2.88381
head 1.5977 -3.84157 -0.16336
rclavicle -1.98785e-014 1.90833e-014
rhumerus -120.128 -175.479 114.931
rradius 93.936
rwrist 33.1164
rhand -65.0028 71.3208
rfingers 7.12502
rthumb -36.9003 45.2306
lclavicle -1.98785e-014 1.90833e-014
lhumerus -112.777 209.711 -116.166
lradius 84.8485
lwrist 11.1001
lhand -35.3166 342.376
lfingers 7.12502
lthumb -8.45031 12.187
rfemur 4.18805 -19.3303 0.365922
rtibia 59.1874
rfoot -29.4222 5.7776
rtoes -12.1424
lfemur -11.0135 -9.27876 -16.3352
ltibia 64.5055
lfoot -33.4219 -16.4117
ltoes 4.16822
141
root -0.598804 15.4499 0.343311 -14.2056 -76.6114 -2.3254
lowerback 14.0496 0.27808 3.51491
upperback -3.81789 0.720642 -2.59785
thorax -12.0639 -0.0518146 -5.03696
lowerneck 3.24035 -5.46907 -4.75209
upperneck 6.88056 -7.37232 -2.80497
head 1.66582 -3.8906 -0.132203
rclavicle -7.15625e-015 3.18055e-015
rhumerus -119.977 -175.155 115.001
rradius 93.9565
rwrist 33.3215
rhand -65.1353 75.3653
rfingers 7.12502
rthumb -37.0257 49.3075
lclavicle -7.15625e-015 3.18055e-015
lhumerus -112.397 209.714 -116.351
lradius 84.6504
lwrist 10.9914
lhand -35.6377 342.521
lfingers 7.12502
lthumb -8.7602 12.3189
rfemur 4.47977 -19.3204 0.812219
rtibia 57.965
rfoot -29.3711 5.44218
rtoes -11.8331
lfemur -11.0391 -9.37536 -16.2029
ltibia 63.647
lfoot -32.8413 -16.5113
ltoes 4.31691
142
root -0.633607 15.5366 0.33309 -13.7788 -76.444 -2.20656
lowerback 13.4546 0.348024 3.32409
upperback -4.15214 0.754702 -2.64186
thorax -12.0854 -0.0316416 -4.97566
lowerneck 3.22541 -5.52083 -4.86636
upperneck 6.97548 -7.44607 -2.69101
head 1.70951 -3.93137 -0.0823705
rclavicle 2.18663e-015 -1.59028e-015
rhumerus -119.888 -174.877 115.036
rradius 94.0033
rwrist 33.6802
rhand -65.2867 78.7508
rfingers 7.12502
rthumb -37.1688 52.7302
lclavicle 2.18663e-015 -1.59028e-015
lhumerus -112.083 209.782 -116.491
lradius 84.4313
lwrist 10.9451
lhand -35.9931 342.599
lfingers 7.12502
lthumb -9.10317 12.3823
rfemur 4.74034 -19.1412 1.38902
rtibia 56.5794
rfoot -29.3175 4.87636
rtoes -11.4511
lfemur -11.0572 -9.48696 -16.118
ltibia 62.6621
lfoot -32.2164 -16.4892
ltoes 4.43983
143
root -0.667232 15.6375 0.322691 -13.3655 -76.2803 -2.02561
lowerback 12.8158 0.417926 3.12282
upperback -4.50057 0.784926 -2.69699
thorax -12.0961 -0.0131574 -4.91857
lowerneck 3.2535 -5.57169 -4.94113
upperneck 7.03795 -7.52156 -2.57811
head 1.7339 -3.97091 -0.0370464
rclavicle -1.74931e-014 3.97569e-014
rhumerus -119.819 -174.624 115.049
rradius 93.978
rwrist 34.0804
rhand -65.375 81.4069
rfingers 7.12502
rthumb -37.2523 55.4081
lclavicle -1.74931e-014 3.97569e-014
lhumerus -111.883 209.884 -116.565
lradius 84.1947
lwrist 10.9768
lhand -36.3733 342.608
lfingers 7.12502
lthumb -9.46998 12.3755
rfemur 4.967 -18.7967 2.10533
rtibia 55.0289
rfoot -29.2334 4.05048
rtoes -11.1214
lfemur -11.0512 -9.71275 -16.0892
ltibia 61.5421
lfoot -31.4916 -16.3675
ltoes 4.58536
